<?xml version="1.0" encoding="UTF-8"?>
<svg xmlns="http://www.w3.org/2000/svg" width="128" height="128" viewBox="0 0 128 128">
  <defs>
    <linearGradient id="tile" x1="0" y1="0" x2="0" y2="1">
      <stop offset="0" stop-color="#4f9bff"/>
      <stop offset="1" stop-color="#1f5fd0"/>
    </linearGradient>
    <linearGradient id="clip" x1="0" y1="0" x2="0" y2="1">
      <stop offset="0" stop-color="#e9eef5"/>
      <stop offset="1" stop-color="#cdd7e5"/>
    </linearGradient>
  </defs>

  <rect x="8" y="8" width="112" height="112" rx="26" fill="url(#tile)"/>
  <rect x="8" y="8" width="112" height="56" rx="26" fill="#ffffff" opacity="0.08"/>

  <rect x="35" y="33" width="60" height="72" rx="9" fill="#0b2a5e" opacity="0.25"/>
  <rect x="34" y="30" width="60" height="72" rx="9" fill="#ffffff"/>
  <rect x="52" y="22" width="24" height="14" rx="4" fill="url(#clip)"/>
  <rect x="57" y="19" width="14" height="9" rx="4" fill="#b7c4d6"/>

  <rect x="42" y="46" width="12" height="12" rx="3" fill="#22c55e"/>
  <path d="M44.8 52.2l2.2 2.2 4.2-4.8" fill="none" stroke="#ffffff" stroke-width="2" stroke-linecap="round" stroke-linejoin="round"/>
  <rect x="59" y="50" width="26" height="4" rx="2" fill="#9aa7ba"/>

  <rect x="42" y="64" width="12" height="12" rx="3" fill="none" stroke="#9bb8e6" stroke-width="2"/>
  <rect x="59" y="68" width="28" height="4" rx="2" fill="#c4cedd"/>

  <rect x="42" y="82" width="12" height="12" rx="3" fill="none" stroke="#9bb8e6" stroke-width="2"/>
  <rect x="59" y="86" width="18" height="4" rx="2" fill="#c4cedd"/>
</svg>
